PathFileType	4	(X/Y/Z)	Walk1.trc
DataRate	CameraRate	NumFrames	NumMarkers	Units	OrigDataRate	OrigDataStartFrame	OrigNumFrames
200.000000	200.000000	7	59	mm	200.000000	430	593
Frame#	Times		CLAV		STRN		LASI		RASI		RACR1		RFA1		RWRU		LACR1		LUA1		LFA1		LCAR		RTH2		LTH3		LTH2		LLFC		LTB3		LTB4		LToe		LTB1		RUA1		RElbow		RTH4		LTH4		LMMAL		LMT1		LTB2		LMT5		LTH1		RTH1		RCAR		LLMAL		RBack		C7		RFHD		RTH3		LFHD		RPSI		RWRR		T10		LPSI		RBHD		RLFC		LElbow		RTB1		LWRU		RElbowM		RTB4		RTB2		RToe		LBHD		LWRR		RTB3		RMT1		LElbowM		RCAL		RMT5		RLMAL		RMMAL		LCAL
			X1	Y1	Z1	X2	Y2	Z2	X3	Y3	Z3	X4	Y4	Z4	X5	Y5	Z5	X6	Y6	Z6	X7	Y7	Z7	X8	Y8	Z8	X9	Y9	Z9	X10	Y10	Z10	X11	Y11	Z11	X12	Y12	Z12	X13	Y13	Z13	X14	Y14	Z14	X15	Y15	Z15	X16	Y16	Z16	X17	Y17	Z17	X18	Y18	Z18	X19	Y19	Z19	X20	Y20	Z20	X21	Y21	Z21	X22	Y22	Z22	X23	Y23	Z23	X24	Y24	Z24	X25	Y25	Z25	X26	Y26	Z26	X27	Y27	Z27	X28	Y28	Z28	X29	Y29	Z29	X30	Y30	Z30	X31	Y31	Z31	X32	Y32	Z32	X33	Y33	Z33	X34	Y34	Z34	X35	Y35	Z35	X36	Y36	Z36	X37	Y37	Z37	X38	Y38	Z38	X39	Y39	Z39	X40	Y40	Z40	X41	Y41	Z41	X42	Y42	Z42	X43	Y43	Z43	X44	Y44	Z44	X45	Y45	Z45	X46	Y46	Z46	X47	Y47	Z47	X48	Y48	Z48	X49	Y49	Z49	X50	Y50	Z50	X51	Y51	Z51	X52	Y52	Z52	X53	Y53	Z53	X54	Y54	Z54	X55	Y55	Z55	X56	Y56	Z56	X57	Y57	Z57	X58	Y58	Z58	X59	Y59	Z59

430	2.15	149.8	1346.1	27.761	228.13	1124.5	21.991	165.05	947.14	-108.6	186.63	954.15	165.25	106.88	1352.6	203.69	141.44	897.8	276.8	125.23	786.57	289.05	80.99	1368.4	-136.8	66.225	1162.7	-194.5	136.99	933.01	-225.66	190.89	783.9	-231.66	187.41	676.6	157.71	164.43	563.65	-119.94	203.38	671.78	-105.87	169.97	468.93	-108.21	4.3826	244.36	-37.938	74.075	304.71	-41.271	15.095	48.022	-69.356	145.16	368.85	-36.418	90.127	1140.3	261.31	67.848	1033.7	283.62	122.16	658.01	183.62	134.17	647.58	-131.71	-77.525	188.38	-2.8538	-8.0652	74.379	-42.394	54.189	328.38	-106.83	-55.895	79.335	-103.14	103.74	739.63	-139.21	110.42	749.6	207.37	175.58	752.46	279.62	-103.73	189.65	-81.498	-14.624	1315.7	136.76	25.171	1424.2	41.41	213.64	1576.9	80.994	134.94	566.94	162.41	206.11	1578.7	8.212	-31.446	981.96	104.83	170.05	799.45	231.31	-12.578	1139.8	36.696	-41.405	971.37	-9.7353	40.128	1556.6	119.36	141.65	462.27	146.11	57.906	1043.1	-214.97	153.9	340.16	65.333	133.97	812.47	-240.83	43.958	1014	202.54	129.69	250.44	60.765	122.96	251.39	132.17	247.17	29.637	93.407	33.739	1569.6	-7.8647	180.5	823.79	-187.23	105.62	161.53	55.52	204.52	38.299	60.001	40.672	1023.8	-147.11	1.5111	26.833	53.641	156.16	21.182	143.78	47.95	60.45	102.08	67.268	76.141	24.078	-157.05	197.96	-24.598
431	2.155	154.76	1346.7	28.054	233.17	1125.3	22.422	170.69	948.04	-108.07	191.74	954.85	165.54	111.94	1353.4	204	149.5	899.18	276.96	134.56	787.75	288.87	85.881	1368.9	-136.53	70.318	1163.2	-193.92	139.25	932.86	-225.09	191.71	783.15	-231.22	191.17	676.14	157.46	172.1	565.29	-119.95	210.1	673.75	-105.78	178.28	470.39	-107.97	16.755	242.84	-37.411	85.353	304.43	-40.906	31.862	47.407	-69.127	155.31	369.82	-36.204	95.982	1141.1	261.94	74.476	1034.3	284.35	125.84	658.14	183.52	141.2	648.98	-131.82	-64.011	185.25	-2.1622	8.16	73.232	-42.09	64.83	327.8	-106.38	-39.924	77.122	-102.69	109.98	740.77	-139.32	115.13	749.88	207.4	185.36	754.31	279.29	-90.352	186.06	-80.721	-9.5712	1316.4	137.21	30.177	1424.9	41.734	218.81	1577.3	81.316	137.68	566.99	162.43	211.29	1579.1	8.5409	-26.308	982.44	105.01	179.12	801.32	231.09	-7.5259	1140.3	37.132	-36.171	971.93	-9.5503	45.276	1557.3	119.68	143.3	462.15	146.16	61.177	1043.6	-214.2	154.99	339.9	65.391	135.07	812.32	-240.31	50.368	1014.5	203.43	130.41	250.28	60.801	123.63	251.23	132.21	247.18	29.612	93.437	38.91	1570.2	-7.5462	181.82	823.19	-186.79	106.02	161.47	55.522	204.52	38.308	60.033	44.008	1024.5	-146.28	1.5262	27.036	53.552	156.14	21.168	143.82	48.026	60.572	102.06	67.401	76.221	24.062	-143.89	192.99	-23.713
432	2.16	159.72	1347.3	28.332	238.2	1126	22.848	176.35	948.88	-107.53	196.85	955.49	165.79	117	1354.1	204.29	157.53	900.55	277.13	143.86	788.92	288.66	90.768	1369.4	-136.28	74.411	1163.5	-193.37	141.5	932.68	-224.53	192.5	782.38	-230.8	194.9	675.65	157.25	179.68	566.9	-119.94	216.74	675.67	-105.67	186.48	471.79	-107.72	29.213	241.22	-36.901	96.65	304.07	-40.541	48.769	46.76	-68.989	165.39	370.74	-35.975	101.82	1141.9	262.56	81.094	1035	285.06	129.48	658.25	183.39	148.18	650.34	-131.92	-50.33	181.98	-1.5036	24.535	72.034	-41.872	75.493	327.11	-105.92	-23.796	74.836	-102.31	116.17	741.87	-139.43	119.76	750.13	207.42	195.1	756.17	278.94	-76.812	182.33	-79.976	-4.5271	1316.9	137.64	35.175	1425.4	42.035	223.98	1577.8	81.621	140.38	567.02	162.44	216.45	1579.6	8.8513	-21.171	982.89	105.2	188.16	803.19	230.87	-2.479	1140.8	37.55	-30.948	972.46	-9.372	50.418	1557.8	119.98	144.93	462.04	146.21	64.445	1044.1	-213.43	156.08	339.65	65.456	136.14	812.14	-239.78	56.779	1015	204.31	131.13	250.12	60.839	124.29	251.08	132.25	247.2	29.585	93.475	44.074	1570.8	-7.2492	183.13	822.57	-186.37	106.42	161.4	55.525	204.52	38.318	60.069	47.357	1025.1	-145.45	1.5441	27.244	53.46	156.12	21.154	143.86	48.1	60.703	102.05	67.537	76.305	24.044	-130.52	187.83	-22.853
433	2.165	164.66	1347.8	28.595	243.22	1126.8	23.268	182.01	949.67	-106.96	201.96	956.08	166.02	122.04	1354.8	204.56	165.53	901.9	277.3	153.12	790.08	288.42	95.648	1369.8	-136.04	78.503	1163.9	-192.83	143.73	932.47	-223.99	193.25	781.59	-230.4	198.58	675.15	157.08	187.19	568.47	-119.92	223.31	677.52	-105.53	194.58	473.14	-107.44	41.759	239.49	-36.409	107.96	303.63	-40.18	65.81	46.095	-68.957	175.43	371.62	-35.734	107.65	1142.6	263.18	87.706	1035.6	285.75	133.05	658.33	183.26	155.11	651.66	-132.01	-36.479	178.56	-0.87935	41.055	70.798	-41.751	86.175	326.33	-105.46	-7.5189	72.491	-102	122.33	742.93	-139.55	124.3	750.34	207.44	204.79	758.04	278.6	-63.109	178.45	-79.261	0.50857	1317.5	138.06	40.166	1426	42.313	229.14	1578.1	81.905	143.07	567.05	162.45	221.61	1580	9.1413	-16.037	983.3	105.38	197.17	805.06	230.65	2.5651	1141.3	37.952	-25.732	972.95	-9.2011	55.554	1558.4	120.25	146.55	461.93	146.25	67.714	1044.5	-212.67	157.16	339.4	65.525	137.18	811.94	-239.26	63.192	1015.4	205.17	131.86	249.96	60.876	124.96	250.94	132.29	247.22	29.559	93.521	49.232	1571.4	-6.9745	184.42	821.94	-185.97	106.83	161.35	55.528	204.52	38.329	60.109	50.721	1025.8	-144.62	1.5661	27.454	53.367	156.1	21.141	143.9	48.173	60.842	102.03	67.677	76.393	24.022	-116.93	182.48	-22.015
434	2.17	169.6	1348.3	28.845	248.23	1127.4	23.679	187.67	950.41	-106.39	207.07	956.6	166.22	127.08	1355.4	204.82	173.5	903.23	277.46	162.34	791.23	288.16	100.52	1370.2	-135.82	82.594	1164.2	-192.3	145.95	932.22	-223.46	193.98	780.78	-230.01	202.23	674.63	156.95	194.6	569.99	-119.89	229.8	679.32	-105.36	202.56	474.42	-107.16	54.395	237.69	-35.936	119.29	303.13	-39.823	82.978	45.432	-69.042	185.4	372.45	-35.484	113.46	1143.3	263.77	94.316	1036.2	286.41	136.57	658.37	183.1	161.98	652.93	-132.1	-22.454	175.02	-0.29103	57.712	69.533	-41.734	96.872	325.44	-105.01	8.898	70.103	-101.78	128.43	743.95	-139.68	128.76	750.52	207.46	214.44	759.9	278.25	-49.246	174.45	-78.577	5.5359	1318	138.46	45.15	1426.4	42.569	234.29	1578.5	82.168	145.74	567.05	162.45	226.77	1580.4	9.409	-10.904	983.67	105.55	206.17	806.92	230.43	7.6087	1141.7	38.337	-20.524	973.4	-9.0387	60.687	1558.9	120.51	148.17	461.81	146.3	70.988	1044.9	-211.93	158.24	339.15	65.597	138.19	811.71	-238.75	69.61	1015.8	206.02	132.59	249.8	60.911	125.63	250.8	132.32	247.25	29.531	93.577	54.386	1571.9	-6.7223	185.7	821.28	-185.59	107.24	161.29	55.53	204.53	38.34	60.152	54.101	1026.3	-143.8	1.5934	27.664	53.276	156.08	21.13	143.94	48.245	60.989	102	67.82	76.485	23.998	-103.11	176.96	-21.194
435	2.175	174.54	1348.7	29.082	253.24	1128.1	24.081	193.33	951.1	-105.82	212.19	957.06	166.41	132.1	1356.1	205.06	181.44	904.54	277.63	171.52	792.36	287.88	105.39	1370.6	-135.61	86.682	1164.4	-191.8	148.17	931.95	-222.96	194.68	779.95	-229.65	205.85	674.1	156.87	201.93	571.45	-119.86	236.22	681.03	-105.17	210.44	475.63	-106.86	67.124	235.8	-35.485	130.63	302.56	-39.473	100.26	44.787	-69.256	195.3	373.24	-35.227	119.27	1143.9	264.36	100.93	1036.7	287.06	140.02	658.39	182.94	168.79	654.15	-132.18	-8.2499	171.37	0.25998	74.501	68.255	-41.826	107.58	324.47	-104.55	25.446	67.687	-101.64	134.49	744.93	-139.81	133.13	750.65	207.47	224.04	761.74	277.9	-35.222	170.34	-77.922	10.555	1318.4	138.83	50.127	1426.9	42.804	239.44	1578.8	82.407	148.39	567.04	162.45	231.92	1580.7	9.6531	-5.7733	984.01	105.71	215.14	808.77	230.21	12.654	1142	38.706	-15.322	973.82	-8.8858	65.817	1559.3	120.74	149.79	461.7	146.34	74.27	1045.2	-211.19	159.33	338.89	65.668	139.17	811.46	-238.23	76.034	1016.2	206.85	133.33	249.65	60.942	126.3	250.66	132.35	247.28	29.501	93.643	59.535	1572.4	-6.4932	186.97	820.59	-185.24	107.66	161.24	55.531	204.53	38.35	60.198	57.501	1026.9	-142.98	1.6271	27.873	53.189	156.06	21.119	143.99	48.318	61.145	101.98	67.967	76.582	23.97	-89.055	171.29	-20.389
436	2.18	179.47	1349.1	29.306	258.25	1128.6	24.471	198.97	951.73	-105.25	217.3	957.44	166.57	137.12	1356.6	205.28	189.36	905.81	277.79	180.66	793.48	287.58	110.26	1370.9	-135.41	90.768	1164.7	-191.32	150.38	931.63	-222.47	195.37	779.09	-229.31	209.43	673.56	156.84	209.16	572.84	-119.81	242.56	682.67	-104.95	218.19	476.78	-106.55	79.946	233.83	-35.056	141.99	301.93	-39.134	117.66	44.175	-69.605	205.14	373.96	-34.97	125.08	1144.5	264.92	107.55	1037.2	287.68	143.43	658.39	182.78	175.53	655.32	-132.25	6.1343	167.62	0.77257	91.416	66.973	-42.03	118.3	323.41	-104.1	42.118	65.257	-101.59	140.5	745.86	-139.95	137.41	750.75	207.47	233.6	763.57	277.54	-21.038	166.13	-77.297	15.567	1318.8	139.19	55.098	1427.3	43.019	244.58	1579.1	82.621	151.05	567.01	162.45	237.06	1581	9.8722	-0.64464	984.31	105.86	224.08	810.6	229.99	17.701	1142.4	39.057	-10.123	974.19	-8.7438	70.946	1559.8	120.96	151.42	461.58	146.37	77.563	1045.5	-210.46	160.42	338.64	65.738	140.14	811.19	-237.73	82.467	1016.6	207.67	134.09	249.5	60.969	126.99	250.53	132.37	247.33	29.47	93.719	64.68	1572.8	-6.2879	188.24	819.88	-184.91	108.08	161.19	55.53	204.55	38.361	60.246	60.922	1027.3	-142.17	1.6681	28.079	53.108	156.05	21.111	144.03	48.393	61.307	101.95	68.118	76.682	23.938	-74.772	165.49	-19.599
